<svg width="126" height="46" viewBox="0 0 126 46" fill="none" xmlns="http://www.w3.org/2000/svg">
<g clip-path="url(#clip0)">
<path d="M75.4882 11.979C75.4412 11.9135 75.3962 11.8439 75.347 11.7784C75.2529 11.6535 75.1567 11.5348 75.0585 11.414C74.1008 10.237 72.9384 9.28516 71.5673 8.56053C70.057 7.76425 68.4158 7.36508 66.6416 7.36508C64.8673 7.36508 63.222 7.76425 61.7056 8.56053C60.1892 9.3568 58.9307 10.4294 57.9259 11.7763C56.9211 13.1253 56.2642 14.6524 55.9531 16.3637C55.8488 17.0248 55.7976 17.641 55.7976 18.21C55.8099 18.8835 55.8631 19.4997 55.9531 20.0564C56.2642 21.78 56.9211 23.3152 57.9259 24.6622C58.8079 25.8474 59.8904 26.8176 61.1695 27.5709C61.3454 27.6733 61.5235 27.7736 61.7056 27.8678C62.1456 28.097 62.5958 28.2894 63.0583 28.4511C64.1879 28.8503 65.381 29.053 66.6416 29.053C67.9206 29.053 69.1382 28.8401 70.2944 28.4204C70.4152 28.3775 70.5359 28.3324 70.6546 28.2853C71.9172 27.7736 73.0346 27.0633 74.0066 26.1565L73.1799 25.1043L71.7331 23.26C71.5837 23.4135 71.4261 23.5568 71.2644 23.6939C70.8122 24.0788 70.3067 24.4001 69.7583 24.6642C69.656 24.7133 69.5557 24.7686 69.4493 24.8136C68.5754 25.1903 67.6382 25.3766 66.6416 25.3766C64.9697 25.3766 63.5065 24.8812 62.25 23.8904C60.9935 22.8997 60.1524 21.6203 59.7247 20.0523H77.33C77.4344 19.4567 77.4855 18.8405 77.4855 18.206C77.4733 17.5448 77.4201 16.9307 77.33 16.3596C77.0333 14.7383 76.4173 13.2768 75.4882 11.979ZM59.7247 16.3657C60.1524 14.81 60.9935 13.5368 62.25 12.546C62.5651 12.2983 62.8905 12.0814 63.2322 11.8951C63.441 11.7804 63.6559 11.6822 63.8728 11.5921C64.722 11.238 65.645 11.0579 66.6416 11.0579C67.4172 11.0579 68.1436 11.1684 68.8292 11.3813C69.6232 11.6269 70.3579 12.0118 71.0311 12.544C72.2876 13.5347 73.1287 14.8079 73.5585 16.3637H59.7247V16.3657Z" fill="#221F1F"/>
<path d="M98.05 0V10.0876C97.9641 10.0098 97.874 9.9361 97.786 9.86241C96.8917 9.11525 95.8931 8.52163 94.786 8.08562C93.5683 7.60662 92.273 7.36712 90.8998 7.36712C89.099 7.36712 87.4455 7.76833 85.9352 8.56666C85.7715 8.65263 85.6078 8.74065 85.4482 8.83482C85.2435 8.95764 85.043 9.08455 84.8486 9.2176C83.4877 10.1469 82.3785 11.3321 81.5231 12.7712C80.5449 14.417 80.0558 16.2306 80.0558 18.2141C80.0558 20.2099 80.5449 22.0277 81.5231 23.6653C82.5013 25.3049 83.809 26.6129 85.4482 27.5914C87.0873 28.5699 88.9025 29.0591 90.8978 29.0591C92.1358 29.0591 93.3084 28.8687 94.4135 28.4859C95.0766 28.2567 95.715 27.9578 96.329 27.5914C97.9681 26.6129 99.2738 25.3111 100.244 23.6837C101.216 22.0584 101.713 20.2407 101.74 18.2326V0H98.05ZM89.7067 25.2885C88.8473 25.1514 88.043 24.8648 87.2961 24.4227C87.0485 24.2753 86.8152 24.1177 86.5921 23.9478C85.8349 23.3746 85.2067 22.6725 84.7135 21.8373C84.073 20.7544 83.7517 19.5467 83.7517 18.2121C83.7517 16.8897 84.073 15.6881 84.7135 14.6073C85.354 13.5265 86.2156 12.6627 87.2981 12.022C88.3807 11.3813 89.5819 11.0599 90.9019 11.0599C92.0253 11.0599 93.0629 11.2953 94.0124 11.7579C94.1782 11.8398 94.3439 11.9258 94.5056 12.022C95.5861 12.6627 96.4477 13.5245 97.0902 14.6073C97.7308 15.6902 98.052 16.8918 98.052 18.2121C98.052 19.5467 97.7308 20.7544 97.0902 21.8373C96.4497 22.9202 95.5861 23.7799 94.5056 24.4227C93.423 25.0634 92.2218 25.3847 90.9019 25.3847C90.4905 25.3847 90.0935 25.3499 89.7067 25.2885Z" fill="#221F1F"/>
<path d="M126 7.36713H122.308V18.2121C122.296 19.559 121.971 20.7708 121.336 21.8475C120.79 22.7748 120.074 23.5404 119.196 24.1443C119.054 24.2405 118.911 24.3346 118.762 24.4227C118.037 24.8525 117.258 25.135 116.427 25.2763C116.016 25.3459 115.594 25.3847 115.158 25.3847C113.836 25.3847 112.635 25.0634 111.554 24.4227C110.472 23.7819 109.614 22.9263 108.98 21.8578C108.346 20.7892 108.022 19.5877 108.008 18.253V7.36713H104.316V18.2121C104.343 20.2325 104.838 22.0584 105.802 23.6837C106.766 25.309 108.069 26.6129 109.706 27.5914C110.367 27.9865 111.059 28.2976 111.777 28.533C112.842 28.881 113.967 29.0591 115.156 29.0591C116.529 29.0591 117.825 28.8196 119.042 28.3406C120.26 27.8616 121.348 27.1943 122.306 26.3386V29.0591H125.998V7.36713H126Z" fill="#221F1F"/>
<path fill-rule="evenodd" clip-rule="evenodd" d="M53.0964 11.4018C53.3808 11.2482 53.3563 10.6382 52.9183 10.497C52.7526 9.87879 52.8426 9.3302 52.8058 8.85734L52.8324 8.8553L54.842 8.78161L50.8269 5.16252H50.8249L48.6188 3.17694L40.2531 3.46966L41.2497 4.3601L42.9993 5.9281L42.676 6.85129C44.1106 6.7776 45.5881 6.99253 47.0185 7.52885C47.9517 7.87683 48.8071 8.33946 49.5745 8.89828C49.6011 8.91671 49.6318 8.93922 49.6543 8.95969C50.0595 9.25446 50.4422 9.57993 50.7962 9.92792L51.1625 8.9208L52.3597 8.87167C52.417 9.29335 52.2983 9.78054 52.374 10.3414C52.3883 10.4376 52.4067 10.5318 52.4333 10.6239C52.1796 10.8286 52.1673 11.1684 52.3924 11.3874L52.3106 11.7641L52.0977 12.7262L52.0466 12.9534L52.2123 12.9554L52.9941 12.9718L53.4504 12.982L53.0964 11.4018ZM46.7709 4.03054C46.6215 3.99574 46.4701 3.96299 46.3186 3.93637C46.4701 3.96299 46.6195 3.99778 46.7709 4.03054ZM46.1038 3.90362C45.9421 3.87906 45.7825 3.8545 45.6188 3.83607C45.7804 3.85245 45.9421 3.87906 46.1038 3.90362ZM45.3855 3.81765C45.2299 3.80537 45.0724 3.79104 44.9148 3.7849C45.0724 3.79104 45.2279 3.80537 45.3855 3.81765Z" fill="#221F1F"/>
<path opacity="0.6" d="M36.2564 18.2305C36.2564 19.5508 36.6718 20.7688 37.3839 21.7636C35.6731 20.5252 33.6779 19.6511 31.5169 19.2663C31.4821 18.9265 31.4657 18.5805 31.4657 18.2305C31.4657 16.8897 31.7051 15.6063 32.1512 14.4231C32.1717 14.4231 32.1963 14.4272 32.2167 14.4272H32.2208C32.5155 14.4477 32.8143 14.4579 33.1151 14.4579C35.1104 14.4579 37.0135 14.0567 38.7387 13.3198C37.2366 14.4313 36.2564 16.2142 36.2564 18.2305Z" fill="#221F1F"/>
<path d="M19.3448 22.6725C19.3407 22.6766 19.3407 22.6766 19.3407 22.6766C17.9205 23.5404 16.2486 24.0378 14.4682 24.0378C9.2805 24.0378 5.07716 19.8333 5.07716 14.6442C5.07716 9.45507 9.2805 5.25055 14.4682 5.25055C17.2554 5.25055 19.752 6.46442 21.4669 8.38859C21.6757 8.66698 21.8885 8.94128 22.1156 9.20124C23.8817 11.2728 26.2228 12.8367 28.8913 13.6535C28.4861 7.5657 24.3135 2.51372 18.6879 0.798341C17.3536 0.393037 15.9334 0.176056 14.4661 0.176056C6.47691 0.176056 0 6.65479 0 14.6462C0 22.6377 6.47691 29.1164 14.4661 29.1164C14.6953 29.1164 14.9225 29.1123 15.1517 29.096C21.3032 28.8114 26.4499 24.6847 28.2467 19.0534C25.5557 19.1762 23.059 20.0339 20.9471 21.4402C20.3844 21.8087 19.8462 22.2201 19.3448 22.6725Z" fill="#221F1F"/>
<path d="M53.2274 18.2305C53.2274 24.1156 48.5554 28.9137 42.719 29.1062C42.5962 29.1144 42.4693 29.1143 42.3404 29.1143C36.6821 29.1143 32.0326 24.7911 31.5128 19.2663C33.6759 19.6491 35.6711 20.5252 37.3819 21.7657C37.3819 21.7657 37.3881 21.7657 37.3881 21.7677C37.9304 22.523 38.6425 23.1535 39.4672 23.5957C40.3247 24.0583 41.307 24.3162 42.3404 24.3162C45.7088 24.3162 48.4326 21.5958 48.4326 18.2285C48.4326 14.8693 45.7088 12.1407 42.3404 12.1407C41.7142 12.1407 41.1085 12.2369 40.5334 12.417C40.5334 12.417 40.5334 12.417 40.5314 12.417C39.8806 12.6197 39.279 12.9288 38.7387 13.3198C37.0136 14.0546 35.1104 14.4558 33.1131 14.4558C32.8143 14.4558 32.5156 14.4477 32.2188 14.4272H32.2168C32.1963 14.4272 32.1697 14.421 32.1493 14.421C32.1697 14.3596 32.1963 14.3044 32.2168 14.2491H32.2188C33.2768 11.5512 35.3826 9.38136 38.0348 8.23709C39.3526 7.66598 40.8117 7.34869 42.3404 7.34869C43.337 7.34869 44.2988 7.4797 45.2136 7.73558C45.2463 7.74376 45.2811 7.754 45.3098 7.76423C45.7927 7.89933 46.2634 8.06923 46.7177 8.27189C47.4524 8.59122 48.14 8.99038 48.7785 9.45914L48.9156 10.4356L48.9483 10.6669L49.1038 10.6116L49.8426 10.3537C51.9279 12.329 53.2274 15.1293 53.2274 18.2305Z" fill="#221F1F"/>
<path d="M49.8446 10.3516L49.1058 10.6095L48.9503 10.6648L48.9176 10.4335L48.7805 9.45709C49.157 9.73344 49.511 10.0302 49.8446 10.3516Z" fill="#221F1F"/>
<path d="M6.07581 45.6704C6.13721 45.781 6.10037 45.8301 5.98987 45.8301H5.74634C5.58672 45.8301 5.48849 45.781 5.44143 45.695L4.01098 42.8435C3.63239 42.0739 2.99596 41.6809 2.116 41.6809H0.562765V45.6684C0.562765 45.7789 0.513651 45.8281 0.415423 45.8281H0.159621C0.049114 45.8281 0 45.7789 0 45.6684V37.3023C0 37.1918 0.049114 37.1427 0.159621 37.1427H0.415423C0.513651 37.1427 0.562765 37.1918 0.562765 37.3023V41.1671H2.07916C2.2265 41.1671 2.32473 41.1671 2.38408 41.1793L5.26953 37.2778C5.3432 37.1918 5.4537 37.1427 5.58672 37.1427H5.86708C5.98987 37.1427 6.01442 37.1918 5.94075 37.3023L2.96935 41.2776C3.63035 41.4373 4.15627 41.8774 4.53486 42.6225L6.07581 45.6704Z" fill="black"/>
<path d="M6.95786 41.9388C6.95786 41.1446 7.17682 40.5202 7.63113 40.0679C8.08339 39.6155 8.74438 39.3821 9.59978 39.3821C10.4675 39.3821 11.1285 39.6155 11.5807 40.0801C12.0207 40.5325 12.2417 41.1446 12.2417 41.9142V42.5386C12.2417 42.7228 12.1435 42.8067 11.9613 42.8067H7.48174V43.6378C7.48174 44.909 8.16729 45.5456 9.52407 45.5456C10.5268 45.5456 11.2492 45.1423 11.6892 44.3461C11.7506 44.2601 11.8242 44.2355 11.9081 44.2847L12.08 44.3829C12.1783 44.432 12.1905 44.5057 12.1292 44.604C11.6278 45.5333 10.7601 45.998 9.52407 45.998C8.68094 45.998 8.03223 45.7769 7.57997 45.3368C7.16455 44.9213 6.95581 44.3338 6.95581 43.5887V41.9388H6.95786ZM11.7137 41.8897C11.7137 41.2531 11.5418 40.7516 11.1878 40.3974C10.8215 40.031 10.2956 39.8468 9.59774 39.8468C8.89991 39.8468 8.37602 40.031 8.00767 40.3974C7.65364 40.7516 7.48174 41.2531 7.48174 41.8897V42.3789H11.7117V41.8897H11.7137ZM9.67141 37.0219C9.75736 37.0219 9.85558 37.0711 9.96404 37.157L11.5787 38.5388C11.6646 38.6247 11.6401 38.6616 11.505 38.6616H11.284C11.1735 38.6616 11.0875 38.637 11.0282 38.5756L9.63457 37.4129L8.2164 38.5756C8.15501 38.637 8.06906 38.6616 7.98311 38.6616H7.74982C7.61476 38.6616 7.5902 38.6247 7.67615 38.5388L9.31533 37.157C9.41356 37.0711 9.51179 37.0219 9.60797 37.0219H9.67141ZM10.5145 35.2492C10.6373 35.1878 10.7355 35.2001 10.7949 35.2615L10.9054 35.3966C10.9791 35.4826 10.9668 35.544 10.8808 35.5809L8.71573 36.8398C8.6175 36.8766 8.55611 36.8643 8.51927 36.8152L8.43332 36.7169C8.37193 36.6555 8.37193 36.5941 8.4456 36.5573L10.5145 35.2492Z" fill="black"/>
<path d="M14.6606 38.0986C14.7588 38.0986 14.8079 38.1478 14.8079 38.2337V39.5663H16.752C16.8502 39.5663 16.8993 39.6155 16.8993 39.7014V39.9102C16.8993 39.9962 16.8502 40.0453 16.752 40.0453H14.8079V43.5928C14.8079 44.3624 14.943 44.8762 15.2233 45.1341C15.4812 45.3798 15.9805 45.5005 16.7274 45.5005C16.8257 45.5005 16.8748 45.5497 16.8748 45.6479V45.8526C16.8748 45.9509 16.8257 46 16.7274 46C15.8106 46.0123 15.1742 45.8403 14.8325 45.5108C14.4661 45.1689 14.282 44.5323 14.282 43.603V40.0433H12.962C12.8761 40.0433 12.827 39.9941 12.827 39.9082V39.6994C12.827 39.6134 12.8761 39.5643 12.962 39.5643H14.282V38.2317C14.282 38.1457 14.3311 38.0966 14.4293 38.0966H14.6606V38.0986Z" fill="black"/>
<path d="M23.4744 39.3841C25.0522 39.3841 25.8462 40.1661 25.8462 41.7443V45.6827C25.8462 45.781 25.7971 45.8301 25.6989 45.8301H25.4554C25.3694 45.8301 25.3203 45.781 25.3203 45.6827V41.7689C25.3203 40.51 24.6839 39.8734 23.4131 39.8734C22.7521 39.8734 22.1422 39.9839 21.5795 40.1906C21.4076 40.2766 21.3216 40.4117 21.3216 40.5939V45.6827C21.3216 45.781 21.2725 45.8301 21.1866 45.8301H20.941C20.8428 45.8301 20.7936 45.781 20.7936 45.6827V40.4608C20.7936 40.1436 20.9533 39.9225 21.2582 39.7874C21.9478 39.5172 22.6804 39.3841 23.4744 39.3841Z" fill="black"/>
<path d="M27.3156 41.5355C27.3156 40.8743 27.5489 40.3483 28.0257 39.9573C28.5025 39.5786 29.139 39.3821 29.933 39.3821C30.7393 39.3821 31.3757 39.5786 31.8525 39.9573C32.3293 40.336 32.5626 40.8621 32.5626 41.5355V43.8589C32.5626 44.52 32.3293 45.0461 31.8525 45.4248C31.3757 45.8035 30.7393 46 29.933 46C29.139 46 28.5025 45.8035 28.0257 45.4248C27.5489 45.0461 27.3156 44.52 27.3156 43.8589V41.5355ZM32.0347 41.5232C32.0347 41.0094 31.8382 40.6062 31.4596 40.3012C31.081 40.0085 30.5674 39.8611 29.9309 39.8611C29.3068 39.8611 28.7931 40.0085 28.4145 40.3012C28.036 40.6062 27.8395 41.0217 27.8395 41.5232V43.8589C27.8395 44.3604 28.036 44.7636 28.4145 45.0707C28.7931 45.3757 29.3068 45.5231 29.9309 45.5231C30.5674 45.5231 31.081 45.3757 31.4596 45.0707C31.8382 44.778 32.0347 44.3727 32.0347 43.8589V41.5232ZM30.0046 37.0219C30.0906 37.0219 30.1888 37.071 30.2972 37.157L31.9119 38.5387C31.9978 38.6247 31.9733 38.6615 31.8382 38.6615H31.6172C31.5067 38.6615 31.4207 38.637 31.3614 38.5756L29.9678 37.4129L28.5496 38.5756C28.4882 38.637 28.4023 38.6615 28.3163 38.6615H28.083C27.948 38.6615 27.9234 38.6247 28.0093 38.5387L29.6485 37.157C29.7468 37.071 29.845 37.0219 29.9412 37.0219H30.0046ZM30.7618 35.1632C30.8846 35.1018 30.9828 35.1141 31.0421 35.1755L31.1526 35.3106C31.2263 35.3966 31.214 35.458 31.1281 35.4948L28.963 36.7538C28.8648 36.7906 28.8034 36.7783 28.7665 36.7292L28.6806 36.6309C28.6192 36.5695 28.6192 36.5081 28.6929 36.4713L30.7618 35.1632Z" fill="black"/>
<path d="M34.3819 37.3781C34.5906 37.3781 34.6868 37.4763 34.6868 37.6831V37.7568C34.6868 37.9656 34.5886 38.0741 34.3819 38.0741H34.3205C34.1118 38.0741 34.0033 37.9635 34.0033 37.7568V37.6831C34.0033 37.4743 34.1138 37.3781 34.3205 37.3781H34.3819ZM34.4678 39.5663C34.5661 39.5663 34.6152 39.6154 34.6152 39.7014V45.6827C34.6152 45.781 34.5661 45.8301 34.4678 45.8301H34.2243C34.1384 45.8301 34.0892 45.781 34.0892 45.6827V39.7014C34.0892 39.6154 34.1384 39.5663 34.2243 39.5663H34.4678Z" fill="black"/>
<path d="M40.3369 37.5971C40.7401 37.1816 41.266 36.9728 41.8902 36.9728C42.4898 36.9728 43.0034 37.1693 43.4188 37.5725C43.822 37.9635 44.0184 38.4282 44.0184 38.9788C44.0184 39.5418 43.8465 40.0064 43.4925 40.3606C43.1876 40.6778 42.6617 40.9972 41.9147 41.3022L41.7919 41.3513L44.3234 43.7852L45.2156 42.9418C45.277 42.8804 45.3507 42.8804 45.412 42.9418L45.5839 43.1138C45.6453 43.1752 45.6453 43.2366 45.5839 43.298L44.6917 44.1536L46.2572 45.6827C46.3554 45.781 46.3309 45.8301 46.1835 45.8301H45.8541C45.7681 45.8301 45.6822 45.7933 45.6208 45.7319L44.3377 44.4852C43.2244 45.5005 42.2094 46.0021 41.2926 46.0021C40.6439 46.0021 40.1057 45.781 39.6657 45.3532C39.2134 44.9131 38.9924 44.3624 38.9924 43.7135C38.9924 42.6368 39.6534 41.8057 40.9856 41.2182C40.1671 40.4363 39.7639 39.7014 39.7639 39.0054C39.7619 38.4528 39.9563 37.9881 40.3369 37.5971ZM41.3274 41.5724C40.7278 41.8282 40.2878 42.0862 40.032 42.3666C39.7025 42.7207 39.5306 43.1731 39.5306 43.7238C39.5306 44.2253 39.7025 44.6408 40.0566 44.9827C40.3983 45.3245 40.8137 45.4965 41.3028 45.4965C42.0723 45.4965 42.9543 45.0441 43.9693 44.127L41.3274 41.5724ZM43.0505 37.9164C42.7456 37.5992 42.3527 37.4395 41.8881 37.4395C41.4113 37.4395 41.0204 37.5992 40.7135 37.9164C40.4208 38.2214 40.2735 38.5776 40.2735 39.0054C40.2735 39.5684 40.6644 40.2275 41.4481 40.9992L41.6814 40.8764C42.3301 40.596 42.7578 40.3626 42.9768 40.1784C43.3308 39.8856 43.5027 39.4803 43.5027 38.9788C43.5027 38.5756 43.3554 38.2214 43.0505 37.9164Z" fill="black"/>
<path d="M50.0677 41.7566C50.0677 41.0115 50.2867 40.424 50.7164 40.0207C51.1687 39.5929 51.8174 39.3841 52.6728 39.3841C54.0295 39.3841 54.8624 39.947 55.1919 41.0606C55.2287 41.1589 55.1919 41.2326 55.1059 41.2694L54.8972 41.3431C54.799 41.3799 54.7376 41.3431 54.7008 41.2448C54.4204 40.3278 53.7349 39.8631 52.6462 39.8631C51.9729 39.8631 51.4592 40.0351 51.1052 40.3646C50.7512 40.6942 50.5793 41.1466 50.5793 41.7341V43.6419C50.5793 44.2294 50.7512 44.694 51.1052 45.0236C51.4715 45.3532 51.9852 45.5251 52.6462 45.5251C53.7594 45.5251 54.4429 45.0359 54.7253 44.0697C54.7622 43.9714 54.8235 43.9346 54.9218 43.9714L55.1428 44.0451C55.241 44.082 55.2656 44.1557 55.2287 44.2416C54.8747 45.4166 54.007 46.002 52.6482 46.002C51.8051 46.002 51.1687 45.7933 50.7164 45.3654C50.2887 44.9622 50.0677 44.3747 50.0677 43.6296V41.7566Z" fill="black"/>
<path d="M56.9395 36.7783C57.0378 36.7783 57.0869 36.8274 57.0869 36.9257V39.812C57.711 39.5315 58.4191 39.3841 59.2397 39.3841C60.8175 39.3841 61.5992 40.1661 61.5992 41.7443V45.6827C61.5992 45.781 61.5501 45.8301 61.4642 45.8301H61.2206C61.1224 45.8301 61.0733 45.781 61.0733 45.6827V41.7689C61.0733 40.51 60.4369 39.8734 59.1783 39.8734C58.3843 39.8734 57.6865 40.0208 57.0869 40.3135V45.6827C57.0869 45.781 57.0378 45.8301 56.9395 45.8301H56.7062C56.608 45.8301 56.5589 45.781 56.5589 45.6827V36.9257C56.5589 36.8274 56.608 36.7783 56.7062 36.7783H56.9395Z" fill="black"/>
<path d="M63.5679 37.3781C63.7766 37.3781 63.8728 37.4763 63.8728 37.6831V37.7568C63.8728 37.9656 63.7745 38.0741 63.5679 38.0741H63.5065C63.2977 38.0741 63.1893 37.9635 63.1893 37.7568V37.6831C63.1893 37.4743 63.2998 37.3781 63.5065 37.3781H63.5679ZM63.6518 39.5663C63.75 39.5663 63.7991 39.6154 63.7991 39.7014V45.6827C63.7991 45.781 63.75 45.8301 63.6518 45.8301H63.4082C63.3223 45.8301 63.2732 45.781 63.2732 45.6827V39.7014C63.2732 39.6154 63.3223 39.5663 63.4082 39.5663H63.6518Z" fill="black"/>
<path d="M67.761 39.3841C69.3388 39.3841 70.1328 40.1784 70.1328 41.7689V44.9847C70.1328 45.3265 69.9854 45.5599 69.6928 45.6827C69.2037 45.8915 68.555 46 67.7487 46C66.746 46 66.0502 45.8403 65.6573 45.5231C65.3155 45.2426 65.1436 44.7902 65.1436 44.1413C65.1436 43.4679 65.3524 42.9786 65.7555 42.6982C66.1586 42.43 66.8442 42.2949 67.7978 42.2949C68.1518 42.2949 68.7637 42.3441 69.6069 42.43V41.7566C69.6069 41.1568 69.4841 40.7167 69.2528 40.424C68.9602 40.0453 68.4588 39.8611 67.7364 39.8611C66.8196 39.8611 66.1832 40.2029 65.8169 40.9009C65.7678 40.9746 65.7064 40.9992 65.6204 40.9624L65.424 40.8887C65.3258 40.8395 65.3012 40.7658 65.3503 40.6799C65.8046 39.8119 66.5986 39.3841 67.761 39.3841ZM69.6069 42.8681C68.7146 42.7821 68.0905 42.733 67.7487 42.733C66.9915 42.733 66.4533 42.8435 66.1464 43.0503C65.8414 43.2591 65.6818 43.6255 65.6818 44.127C65.6818 44.6162 65.8169 44.9704 66.0727 45.1792C66.3776 45.435 66.9158 45.5579 67.7119 45.5579C68.3729 45.5579 68.9111 45.4719 69.3265 45.3122C69.5107 45.2262 69.6069 45.0789 69.6069 44.8598V42.8681Z" fill="black"/>
<path d="M76.8082 39.3841C78.0667 39.3841 78.8751 39.8365 79.2537 40.729C79.3028 40.815 79.2782 40.8887 79.18 40.9378L78.9958 41.0115C78.9098 41.0483 78.8485 41.036 78.7871 40.9501C78.4944 40.2275 77.8334 39.8611 76.8184 39.8611C75.5967 39.8611 74.9848 40.2889 74.9848 41.1323C74.9848 41.6583 75.1813 42.0125 75.5844 42.1967C75.8177 42.3072 76.3068 42.4055 77.0394 42.4771C77.8089 42.5508 78.3471 42.6859 78.6786 42.8804C79.1309 43.1485 79.3642 43.5907 79.3642 44.213C79.3642 45.4002 78.5579 45.998 76.931 45.998C75.5987 45.998 74.729 45.4842 74.3259 44.4566C74.289 44.3583 74.3259 44.2969 74.4118 44.2601L74.6206 44.1987C74.7065 44.1618 74.7679 44.1987 74.8047 44.2846C75.1096 45.1157 75.8075 45.5312 76.9207 45.5312C78.2038 45.5312 78.8526 45.1034 78.8526 44.2355C78.8526 43.7708 78.6684 43.4413 78.3021 43.2448C78.0442 43.1097 77.592 42.9991 76.933 42.9398C76.1144 42.8538 75.5394 42.731 75.2345 42.5733C74.7331 42.3175 74.4773 41.8405 74.4773 41.1425C74.4732 39.9696 75.2549 39.3841 76.8082 39.3841Z" fill="black"/>
<path d="M80.4999 41.9388C80.4999 41.1446 80.7189 40.5202 81.1732 40.0679C81.6255 39.6155 82.2865 39.3821 83.1419 39.3821C84.0095 39.3821 84.6705 39.6155 85.1228 40.0801C85.5628 40.5325 85.7838 41.1446 85.7838 41.9142V42.5386C85.7838 42.7228 85.6856 42.8067 85.5034 42.8067H81.0279V43.6378C81.0279 44.909 81.7135 45.5456 83.0702 45.5456C84.073 45.5456 84.7954 45.1424 85.2354 44.3461C85.2967 44.2601 85.3704 44.2355 85.4543 44.2847L85.6262 44.3829C85.7244 44.4321 85.7367 44.5057 85.6753 44.604C85.174 45.5333 84.3063 45.998 83.0702 45.998C82.2271 45.998 81.5784 45.7769 81.1261 45.3368C80.7107 44.9213 80.502 44.3338 80.502 43.5887V41.9388H80.4999ZM85.2579 41.8897C85.2579 41.2531 85.086 40.7516 84.7319 40.3974C84.3656 40.031 83.8397 39.8468 83.1419 39.8468C82.444 39.8468 81.9202 40.031 81.5518 40.3974C81.1978 40.7516 81.0259 41.2531 81.0259 41.8897V42.3789H85.2558V41.8897H85.2579ZM82.7633 38.7598C82.7019 38.723 82.7264 38.6739 82.8615 38.5879C82.9843 38.4773 83.1194 38.3545 83.2524 38.2092C83.412 38.0495 83.4713 37.8673 83.4488 37.6708C83.4365 37.4866 83.3383 37.3658 83.1316 37.3044C82.9127 37.243 82.7039 37.2799 82.4952 37.3904C82.397 37.4272 82.3479 37.3904 82.3601 37.3044L82.3356 37.1693C82.3233 37.1079 82.3479 37.0588 82.397 37.0342C82.7019 36.8745 83.0211 36.8377 83.3629 36.9237C83.7537 37.0342 83.9502 37.2532 83.9502 37.5849C83.9748 37.8653 83.9011 38.1232 83.7169 38.332C83.5573 38.5162 83.4243 38.637 83.3138 38.6861C83.2524 38.723 83.191 38.7475 83.105 38.7598H82.7633Z" fill="black"/>
<path d="M90.9183 38.0986C91.0165 38.0986 91.0656 38.1478 91.0656 38.2337V39.5663H93.0097C93.1079 39.5663 93.1571 39.6155 93.1571 39.7014V39.9102C93.1571 39.9962 93.1079 40.0453 93.0097 40.0453H91.0656V43.5928C91.0656 44.3624 91.2007 44.8762 91.481 45.1341C91.7389 45.3798 92.2382 45.5005 92.9852 45.5005C93.0834 45.5005 93.1325 45.5497 93.1325 45.6479V45.8526C93.1325 45.9509 93.0834 46 92.9852 46C92.0684 46.0123 91.4319 45.8403 91.0902 45.5108C90.7238 45.1689 90.5397 44.5323 90.5397 43.603V40.0433H89.2197C89.1338 40.0433 89.0847 39.9941 89.0847 39.9082V39.6994C89.0847 39.6134 89.1338 39.5643 89.2197 39.5643H90.5397V38.2317C90.5397 38.1457 90.5888 38.0966 90.687 38.0966H90.9183V38.0986Z" fill="black"/>
<path d="M97.0923 39.3841C97.1783 39.3841 97.2274 39.4333 97.2274 39.5315V39.728C97.2274 39.8263 97.1783 39.8754 97.0923 39.8754H96.7015C96.0036 39.8754 95.3938 39.9859 94.8556 40.1927C94.6837 40.2787 94.5977 40.4138 94.5977 40.5959V45.6848C94.5977 45.783 94.5486 45.8321 94.4627 45.8321H94.2171C94.1188 45.8321 94.0697 45.783 94.0697 45.6848V40.4506C94.0697 40.1333 94.2294 39.9123 94.5343 39.7771C95.1584 39.5213 95.8788 39.3985 96.7117 39.3862H97.0923V39.3841Z" fill="black"/>
<path d="M98.5228 37.3781C98.7315 37.3781 98.8277 37.4763 98.8277 37.6831V37.7568C98.8277 37.9656 98.7295 38.0741 98.5228 38.0741H98.4614C98.2526 38.0741 98.1442 37.9635 98.1442 37.7568V37.6831C98.1442 37.4743 98.2547 37.3781 98.4614 37.3781H98.5228ZM98.6087 39.5663C98.707 39.5663 98.7561 39.6154 98.7561 39.7014V45.6827C98.7561 45.781 98.707 45.8301 98.6087 45.8301H98.3652C98.2792 45.8301 98.2301 45.781 98.2301 45.6827V39.7014C98.2301 39.6154 98.2792 39.5663 98.3652 39.5663H98.6087Z" fill="black"/>
<path d="M104.21 38.0986C104.308 38.0986 104.357 38.1478 104.357 38.2337V39.5663H106.301C106.399 39.5663 106.449 39.6155 106.449 39.7014V39.9102C106.449 39.9962 106.399 40.0453 106.301 40.0453H104.357V43.5928C104.357 44.3624 104.492 44.8762 104.773 45.1341C105.03 45.3798 105.53 45.5005 106.277 45.5005C106.375 45.5005 106.424 45.5497 106.424 45.6479V45.8526C106.424 45.9509 106.375 46 106.277 46C105.36 46.0123 104.723 45.8403 104.382 45.5108C104.015 45.1689 103.831 44.5323 103.831 43.603V40.0433H102.511C102.425 40.0433 102.376 39.9941 102.376 39.9082V39.6994C102.376 39.6134 102.425 39.5643 102.511 39.5643H103.831V38.2317C103.831 38.1457 103.88 38.0966 103.978 38.0966H104.21V38.0986Z" fill="black"/>
<path d="M107.779 36.7783C107.877 36.7783 107.926 36.8274 107.926 36.9257V39.812C108.55 39.5315 109.258 39.3841 110.079 39.3841C111.657 39.3841 112.438 40.1661 112.438 41.7443V45.6827C112.438 45.781 112.389 45.8301 112.303 45.8301H112.06C111.962 45.8301 111.912 45.781 111.912 45.6827V41.7689C111.912 40.51 111.276 39.8734 110.017 39.8734C109.223 39.8734 108.526 40.0208 107.926 40.3135V45.6827C107.926 45.781 107.877 45.8301 107.779 45.8301H107.545C107.447 45.8301 107.398 45.781 107.398 45.6827V36.9257C107.398 36.8274 107.447 36.7783 107.545 36.7783H107.779Z" fill="black"/>
<path d="M119.089 44.9356C119.089 45.2528 118.942 45.4739 118.637 45.609C117.976 45.8649 117.243 46 116.425 46C114.847 46 114.053 45.218 114.053 43.6398V39.7014C114.053 39.6154 114.102 39.5663 114.2 39.5663H114.434C114.532 39.5663 114.581 39.6154 114.581 39.7014V43.6153C114.581 44.8864 115.217 45.523 116.476 45.523C117.162 45.523 117.771 45.4125 118.31 45.2058C118.481 45.1198 118.567 44.9847 118.567 44.7902V39.7014C118.567 39.6154 118.617 39.5663 118.715 39.5663H118.96C119.046 39.5663 119.095 39.6154 119.095 39.7014V40.9235C119.425 40.5939 119.597 40.1906 119.597 39.7014C119.584 39.6154 119.621 39.5663 119.707 39.554H120.012C120.086 39.554 120.123 39.6031 120.123 39.6891C120.123 40.3135 119.926 40.8272 119.535 41.2305C119.388 41.4025 119.243 41.5478 119.095 41.6583V44.9356H119.089ZM118.148 36.985C118.271 36.9236 118.367 36.9359 118.428 36.9973L118.539 37.1324C118.612 37.2184 118.6 37.2798 118.514 37.3167L116.349 38.5756C116.251 38.6124 116.189 38.6001 116.153 38.551L116.067 38.4527C116.005 38.3913 116.005 38.3299 116.079 38.2931L118.148 36.985Z" fill="black"/>
<path d="M120.825 41.7566C120.825 41.0115 121.044 40.424 121.473 40.0207C121.926 39.5929 122.574 39.3841 123.43 39.3841C124.786 39.3841 125.619 39.947 125.949 41.0606C125.986 41.1589 125.949 41.2326 125.863 41.2694L125.654 41.3431C125.556 41.3799 125.494 41.3431 125.458 41.2448C125.177 40.3278 124.492 39.8631 123.403 39.8631C122.73 39.8631 122.216 40.0351 121.862 40.3646C121.508 40.6942 121.336 41.1466 121.336 41.7341V43.6419C121.336 44.2294 121.508 44.694 121.862 45.0236C122.228 45.3532 122.742 45.5251 123.403 45.5251C124.516 45.5251 125.2 45.0359 125.482 44.0697C125.519 43.9714 125.58 43.9346 125.679 43.9714L125.9 44.0451C125.998 44.082 126.022 44.1557 125.986 44.2416C125.632 45.4166 124.764 46.002 123.405 46.002C122.562 46.002 121.926 45.7933 121.473 45.3654C121.046 44.9622 120.825 44.3747 120.825 43.6296V41.7566Z" fill="black"/>
</g>
<defs>
<clipPath id="clip0">
<rect width="126" height="46" fill="white"/>
</clipPath>
</defs>
</svg>
