<svg width="25" height="24" viewBox="0 0 25 24" fill="none" xmlns="http://www.w3.org/2000/svg">
<path fill-rule="evenodd" clip-rule="evenodd" d="M2.14605 0.110914C1.12379 0.378133 0.338179 1.18339 0.0955341 2.21285C0.0125887 2.56484 8.05096e-05 3.84876 8.05096e-05 11.9991C8.05096e-05 22.2449 -0.0148282 21.8122 0.361111 22.503C0.578866 22.9031 1.09694 23.4211 1.49701 23.6389C2.1878 24.0148 1.75507 23.9999 12.0009 23.9999C22.2468 23.9999 21.8141 24.0148 22.5049 23.6389C22.9049 23.4211 23.423 22.9031 23.6408 22.503C24.0167 21.8122 24.0018 22.2449 24.0018 11.9991C24.0018 1.75321 24.0167 2.18594 23.6408 1.49515C23.423 1.09508 22.9049 0.577 22.5049 0.359245C21.8136 -0.0169465 22.2515 -0.00203783 11.9694 0.000868097C3.32112 0.00339499 2.52331 0.0123023 2.14605 0.110914ZM6.56811 1.16621C6.56811 1.18428 6.36584 1.43299 6.11852 1.71897C4.93056 3.09297 4.0193 4.94006 3.66029 6.70194C2.96185 10.1293 3.98506 13.698 6.43002 16.3621C6.88025 16.8527 6.93015 17.0289 6.79819 17.662C6.63015 18.4677 6.24745 19.0111 5.64813 19.2946C5.27573 19.4708 5.17832 19.5954 5.17832 19.8956C5.17832 20.3973 5.41876 20.4963 6.63129 20.494C7.69517 20.4919 7.86132 20.4525 9.16374 19.8926C10.3719 19.3733 10.4291 19.3703 11.623 19.7616C13.1492 20.2618 13.9785 20.4286 15.4223 20.5259C17.7233 20.681 20.1161 20.2314 22.164 19.2593C22.5246 19.0881 22.8327 18.948 22.8486 18.948C22.8646 18.948 22.8672 19.5379 22.8545 20.2589C22.8286 21.7166 22.8018 21.8351 22.3949 22.2855C22.2677 22.4263 22.0304 22.6071 21.8676 22.6873L21.5716 22.8331H12.0009H2.43032L2.1343 22.6873C1.79759 22.5214 1.42512 22.1383 1.2713 21.7996C1.17591 21.5896 1.16542 20.7556 1.14994 12.1886C1.13826 5.69017 1.15392 2.70698 1.20086 2.48045C1.32064 1.90273 1.81824 1.3748 2.38743 1.22155C2.67966 1.14283 6.56811 1.09141 6.56811 1.16621ZM21.8676 1.31081C22.2043 1.4767 22.5768 1.85984 22.7306 2.19851C22.8255 2.40761 22.8365 3.11703 22.852 10.0119L22.8691 17.5954L22.3958 17.8601C21.4116 18.4106 20.1593 18.8774 18.9774 19.1344C18.087 19.3281 17.3696 19.3962 16.2305 19.3953C14.665 19.3941 13.444 19.185 11.9347 18.6596C10.6963 18.2286 10.1952 18.2416 9.00025 18.7358C8.23302 19.053 7.3862 19.345 7.34697 19.3057C7.33307 19.2918 7.42018 19.1133 7.54059 18.9089C7.86403 18.36 7.98292 17.8873 7.98362 17.1476C7.98431 16.3864 7.96953 16.3548 7.23041 15.5367C6.12009 14.3078 5.27592 12.782 4.89948 11.3236C4.59297 10.1364 4.51425 8.53823 4.70339 7.34251C4.81792 6.61817 5.15602 5.49737 5.46336 4.82288C5.97341 3.70378 6.90855 2.41317 7.81419 1.57872L8.30049 1.13064L14.936 1.14783L21.5716 1.16501L21.8676 1.31081ZM16.1655 6.4766L16.0124 6.63959V9.45114V12.2627L16.1896 12.4152C16.4286 12.6207 16.7558 12.6196 16.9628 12.4125L17.1179 12.2575V9.44059V6.62367L16.9628 6.46864C16.7448 6.25057 16.3744 6.2543 16.1655 6.4766ZM7.60761 7.03719C7.38967 7.25508 7.39327 7.62558 7.61539 7.83449C7.77142 7.98124 7.82 7.98844 8.78407 8.00777C9.33728 8.01883 9.78991 8.03778 9.78991 8.04978C9.78991 8.06185 9.264 8.91247 8.62122 9.94003C7.41867 11.8625 7.33035 12.0558 7.53351 12.3204C7.70819 12.5479 7.86271 12.5676 9.47474 12.5676H11.0631L11.2477 12.383C11.4791 12.1516 11.4908 11.8845 11.2801 11.6394L11.1278 11.4621L10.0892 11.4305L9.05047 11.3989L10.2164 9.53541C10.8576 8.51044 11.3964 7.58496 11.4136 7.47877C11.4374 7.33227 11.404 7.23707 11.2751 7.08394L11.1053 6.88211H9.43399H7.76264L7.60761 7.03719ZM12.8452 8.65656C12.5392 8.74525 12.0586 9.09592 11.8299 9.39738C11.4179 9.94047 11.3276 10.7483 11.608 11.3823C12.0125 12.2967 13.0946 12.7782 14.0308 12.4604C14.3741 12.3438 14.3914 12.3435 14.5274 12.4536C14.7362 12.6226 15.0468 12.6 15.2457 12.4011L15.4122 12.2345V10.5662V8.89787L15.2572 8.74285C15.0615 8.54714 14.6645 8.52819 14.5028 8.70684C14.3973 8.82346 14.3887 8.82346 14.0818 8.70684C13.749 8.58037 13.1869 8.55756 12.8452 8.65656ZM19.0613 8.6834C18.2401 8.98499 17.7302 9.71469 17.7334 10.5837C17.7362 11.3469 18.1388 11.9868 18.8551 12.3667C19.1254 12.5101 19.2485 12.5343 19.708 12.5343C20.17 12.5343 20.2907 12.5103 20.5726 12.3624C21.0023 12.137 21.3302 11.7963 21.5303 11.3673C21.9969 10.3673 21.47 9.10697 20.4213 8.71461C20.0263 8.56685 19.4167 8.55283 19.0613 8.6834ZM13.8389 9.82272C14.4109 10.1185 14.405 11.0062 13.829 11.3151C13.4169 11.5361 12.9535 11.3963 12.6955 10.9731C12.2664 10.2693 13.0934 9.43717 13.8389 9.82272ZM20.2799 9.94919C20.9317 10.5736 20.3221 11.6345 19.46 11.3762C19.086 11.2642 18.8867 10.9898 18.8867 10.5869C18.8867 10.2177 18.987 10.0321 19.2889 9.8423C19.5768 9.66131 20.0305 9.71027 20.2799 9.94919Z" fill="#FFCF54"/>
</svg>
