<svg width="26" height="26" viewBox="0 0 26 26" fill="none" xmlns="http://www.w3.org/2000/svg">
<path d="M3.24939 10.5625H8.12439V21.125H3.24939C3.0339 21.125 2.82724 21.0394 2.67487 20.887C2.52249 20.7347 2.43689 20.528 2.43689 20.3125V11.375C2.43689 11.1595 2.52249 10.9528 2.67487 10.8005C2.82724 10.6481 3.0339 10.5625 3.24939 10.5625V10.5625Z" stroke="#FFCF54" stroke-width="1.8" stroke-linecap="round" stroke-linejoin="round"/>
<path d="M8.12439 10.5625L12.1869 2.4375C12.6137 2.4375 13.0363 2.52156 13.4306 2.68489C13.8249 2.84822 14.1832 3.08761 14.485 3.3894C14.7868 3.69119 15.0262 4.04947 15.1895 4.44378C15.3528 4.83809 15.4369 5.2607 15.4369 5.6875V8.125H21.7211C21.9515 8.125 22.1793 8.174 22.3893 8.26875C22.5994 8.3635 22.7869 8.50183 22.9393 8.67457C23.0918 8.84731 23.2058 9.0505 23.2738 9.27066C23.3418 9.49082 23.3621 9.72292 23.3336 9.95156L22.1148 19.7016C22.0657 20.0946 21.8747 20.4561 21.5778 20.7182C21.2809 20.9803 20.8984 21.125 20.5024 21.125H8.12439" stroke="#FFCF54" stroke-width="1.8" stroke-linecap="round" stroke-linejoin="round"/>
</svg>
