<svg width="26" height="26" viewBox="0 0 26 26" fill="none" xmlns="http://www.w3.org/2000/svg">
<path d="M23.5625 6.5H2.4375C1.98877 6.5 1.625 6.86377 1.625 7.3125V18.6875C1.625 19.1362 1.98877 19.5 2.4375 19.5H23.5625C24.0112 19.5 24.375 19.1362 24.375 18.6875V7.3125C24.375 6.86377 24.0112 6.5 23.5625 6.5Z" stroke="#FFCF54" stroke-width="1.8" stroke-linecap="round" stroke-linejoin="round"/>
<path d="M13 16.25C14.7949 16.25 16.25 14.7949 16.25 13C16.25 11.2051 14.7949 9.75 13 9.75C11.2051 9.75 9.75 11.2051 9.75 13C9.75 14.7949 11.2051 16.25 13 16.25Z" stroke="#FFCF54" stroke-width="1.8" stroke-linecap="round" stroke-linejoin="round"/>
<path d="M17.875 6.5L24.375 12.1875" stroke="#FFCF54" stroke-width="1.8" stroke-linecap="round" stroke-linejoin="round"/>
<path d="M17.875 19.5L24.375 13.8125" stroke="#FFCF54" stroke-width="1.8" stroke-linecap="round" stroke-linejoin="round"/>
<path d="M8.125 6.5L1.625 12.1875" stroke="#FFCF54" stroke-width="1.8" stroke-linecap="round" stroke-linejoin="round"/>
<path d="M8.125 19.5L1.625 13.8125" stroke="#FFCF54" stroke-width="1.8" stroke-linecap="round" stroke-linejoin="round"/>
</svg>
